<?xml version="1.0" encoding="utf-8"?>
<!-- Generator: Adobe Illustrator 17.1.0, SVG Export Plug-In . SVG Version: 6.00 Build 0)  -->
<!DOCTYPE svg PUBLIC "-//W3C//DTD SVG 1.1//EN" "http://www.w3.org/Graphics/SVG/1.1/DTD/svg11.dtd">
<svg version="1.1" id="Layer_1" xmlns="http://www.w3.org/2000/svg" xmlns:xlink="http://www.w3.org/1999/xlink" x="0px" y="0px"
	 viewBox="0 0 70 70" enable-background="new 0 0 70 70" xml:space="preserve">
<circle fill="#0E0E0E" cx="35" cy="35" r="35"/>
<g>
	<defs>
		<circle id="Clarion_x5F_Mask_1_" cx="35" cy="35" r="32"/>
	</defs>
	<clipPath id="Clarion_x5F_Mask_2_">
		<use xlink:href="#Clarion_x5F_Mask_1_"  overflow="visible"/>
	</clipPath>
	<g clip-path="url(#Clarion_x5F_Mask_2_)">
		<path fill="#FFFFFF" d="M39.3,2.8c11.2,1.4,22.5,9.9,26.4,20.7c0.5,1.7,1.2,3.3,1.3,5.1l-19.9,5.5c-6.6,2-13.4,4-21,3.4
			c-1-0.2-2.3-0.5-2.7-1.6c0.5-3.1,4.1-4.4,6.1-6.2c6.3-3.5,12.9-6.1,19.9-7.9c0.2-1.9,0.6-3.9,0.4-5.9c-1-0.3-1.7,0.6-2.6,0.4
			l-27.2,6.8c-1.4,0.5-3.1,0.5-4.5,1.2c-4,0.7-7.7,2-11.7,2.7C6.1,16.3,16.2,6.1,27.1,3.6c3.8-0.9,8.1-1.2,12.2-0.9V2.8z"/>
		<path fill="#FFFFFF" d="M27.1,24.5c-6.9,3.8-14.9,9.3-16.3,17.5c-0.3,2.6,0.7,4.8,2.6,6.6c7.3,5.8,18.6,3,26.8,1.5
			c8.8-2,17.6-4.1,26.4-5.9c-0.7,3.2-2.2,6.3-4.1,9.1C55,64.6,42,69.3,28.9,66.8c-11-2.2-21.2-11.2-24.4-22
			C3,40.3,2.7,35.3,3.4,30.4C11.2,28.3,19.2,26.4,27.1,24.5z"/>
	</g>
</g>
</svg>
