<?xml version="1.0" encoding="utf-8"?>
<!-- Generator: Adobe Illustrator 17.1.0, SVG Export Plug-In . SVG Version: 6.00 Build 0)  -->
<!DOCTYPE svg PUBLIC "-//W3C//DTD SVG 1.1//EN" "http://www.w3.org/Graphics/SVG/1.1/DTD/svg11.dtd">
<svg version="1.1" id="Layer_1" xmlns="http://www.w3.org/2000/svg" xmlns:xlink="http://www.w3.org/1999/xlink" x="0px" y="0px"
	 viewBox="0 0 70 70" enable-background="new 0 0 70 70" xml:space="preserve">
<circle fill="#0E0E0E" cx="35" cy="35" r="35"/>
<g>
	<defs>
		<circle id="Comfort_x5F_Mask_1_" cx="35" cy="35" r="32"/>
	</defs>
	<clipPath id="Comfort_x5F_Mask_2_">
		<use xlink:href="#Comfort_x5F_Mask_1_"  overflow="visible"/>
	</clipPath>
	<g clip-path="url(#Comfort_x5F_Mask_2_)">
		<g>
			<path fill="#FFFFFF" d="M32.9,24.9c11.8,4.9,20.8,6.3,29.4-1.2c0.6-0.6,1.2-1.2,1.7-1.8C58.8,10.4,47.4,3,34.8,3
				C21.6,3,10.3,10.5,5.5,22.8C11.4,18.1,19.9,19.6,32.9,24.9z"/>
			<path fill="#FFFFFF" d="M29.8,57.4C17.7,52.2,10.9,53,9.7,54.2c6,8.7,14.6,12.8,25.2,12.8C44.3,67,53,63.7,59,56.5
				C50.6,61.9,40.8,62.1,29.8,57.4z"/>
			<path fill="#FFFFFF" d="M64.3,42.3c-9.6,8.1-21.5,7.3-34.7,1.6c-11.6-5-17.4-7-25.8-3c0.6,4.3,1.6,7.1,3.9,10.8
				c6.4-2.6,13.7-1.8,25,2.2c11.7,4.1,20.7,5.3,29.3-1.7c2.5-4,4.1-8,4.6-12.7C65.8,40.4,65.2,41.5,64.3,42.3z"/>
			<path fill="#FFFFFF" d="M63,25.9c-8.9,7.8-20.1,8.3-32.9,2.8c-11.4-5-18.9-7.7-25.7-3.2c-1,3.1-1.5,6.4-1.5,9.7
				c0,1.1,0,1.9,0.1,3.1c7.8-4.3,16-3,29.7,2.6c12.3,5,21.7,6.2,31-0.9c1.2-0.9,2.3-2.3,3.1-3.4c0-0.2,0-1.3,0-1.3
				c0-4.1-0.6-7.7-2.1-11.5C64.3,24.4,63.7,25.3,63,25.9z"/>
		</g>
	</g>
</g>
</svg>
