<?xml version="1.0" encoding="utf-8"?>
<!-- Generator: Adobe Illustrator 17.1.0, SVG Export Plug-In . SVG Version: 6.00 Build 0)  -->
<!DOCTYPE svg PUBLIC "-//W3C//DTD SVG 1.1//EN" "http://www.w3.org/Graphics/SVG/1.1/DTD/svg11.dtd">
<svg version="1.1" id="Layer_1" xmlns="http://www.w3.org/2000/svg" xmlns:xlink="http://www.w3.org/1999/xlink" x="0px" y="0px"
	 viewBox="0 0 70 70" enable-background="new 0 0 70 70" xml:space="preserve">
<circle fill="#0E0E0E" cx="35.4" cy="35" r="35"/>
<g>
	<path fill="#FFFFFF" d="M22.3,24.1c3.5,2.9,8.7,8.5,13.9,13c10.7-11.1,6.5-25.8,1.5-33.9C37,3,36.2,3,35.4,3
		c-11.3,0-21.3,5.9-27,14.8C12.9,18.4,17.8,20.3,22.3,24.1z"/>
	<path fill="#FFFFFF" d="M49.5,6.3c2,11.3-1.1,24.4-9.1,31.6l0,0c-0.5,0.5-0.9,1-1.4,1.4c0.7,0.5,1.3,1,2,1.4c3.4,2.2,6.3,3,8.5,3
		c0.4,0,0.8,0,1.1-0.1c0.1,0,0.2,0,0.3-0.1c0.2,0,0.5-0.1,0.7-0.1c0.1,0,0.2-0.1,0.4-0.1c0.2-0.1,0.4-0.1,0.5-0.2
		c0.1,0,0.2-0.1,0.3-0.2c0.2-0.1,0.3-0.1,0.5-0.2c0.1-0.1,0.2-0.1,0.3-0.2c0.1,0,0.1-0.1,0.2-0.2c0.1,0,0.1-0.1,0.2-0.1
		c0.1-0.1,0.2-0.2,0.3-0.2c0.1-0.1,0.2-0.2,0.3-0.3c0.1-0.1,0.2-0.2,0.2-0.3c0.1-0.1,0.2-0.2,0.3-0.3c0.1-0.1,0.1-0.2,0.2-0.3
		c0.1-0.1,0.2-0.2,0.2-0.3c0.1-0.1,0.1-0.2,0.2-0.3c0.1-0.1,0.1-0.2,0.2-0.4c0-0.1,0.1-0.2,0.1-0.2c0,0,0,0,0,0
		c0-0.1,0.1-0.3,0.1-0.4c0-0.1,0.1-0.2,0.1-0.3c0-0.1,0.1-0.3,0.1-0.4c0-0.1,0-0.2,0-0.3c0-0.1,0-0.3,0-0.4c0-0.1,0-0.1,0-0.2
		c0-0.4-0.1-0.8-0.2-1.1c0-0.1,0-0.1-0.1-0.2c-0.1-0.3-0.2-0.6-0.4-0.8c-0.4-0.4,0.1-0.8,0.5-0.3c0.1,0.2,0.3,0.4,0.4,0.6
		c0,0,0-0.1,0-0.1c0,0,0,0.1,0.1,0.1c0.1,0.1,0.1,0.2,0.1,0.3c0.1,0.2,0.2,0.3,0.2,0.5c0,0.1,0.1,0.2,0.1,0.3
		c0.1,0.2,0.1,0.4,0.2,0.6c0,0.1,0,0.2,0.1,0.3c0.1,0.3,0.1,0.6,0.1,0.9c0,2.5-1.1,4.4-2.8,5.7c-4,3-11.5,2.9-17.4-0.6
		c-6.3-3.8-13.2-11.3-18.4-16.3c-1.2-1.2-5.5-5.6-11.9-7.2c-0.4,0.7-0.7,1.5-1.1,2.2c3.3,1.2,6.9,3.4,10.8,7.2
		c13.1,12.8,19.2,19.7,30.5,19.7c15.5,0,18.5-14.9,14.1-20.4c0,0.1,0.1,0.1,0.1,0.2c-0.2-0.3-0.4-0.6-0.6-0.8
		c-0.7-0.9,0-1.3,0.5-0.9c0.3,0.3,0.6,0.6,0.9,0.9c0,0,0,0,0-0.1c0,0,0,0.1,0.1,0.1c0.1,0.1,0.1,0.2,0.2,0.3
		c0.1,0.1,0.2,0.2,0.2,0.3c0.1,0.1,0.1,0.2,0.2,0.3c0.1,0.1,0.1,0.2,0.2,0.4c0.1,0.1,0.1,0.2,0.2,0.3c0.1,0.1,0.1,0.3,0.2,0.4
		c0,0.1,0.1,0.2,0.1,0.3c0.1,0.1,0.1,0.3,0.2,0.4c0,0.1,0.1,0.2,0.1,0.4c0,0.2,0.1,0.3,0.1,0.5c0,0.1,0.1,0.3,0.1,0.4
		c0,0.2,0.1,0.3,0.1,0.5c0,0.1,0,0.3,0.1,0.4c0,0.2,0,0.4,0.1,0.5c0,0.1,0,0.3,0,0.4c0,0.2,0,0.4,0,0.6c0,0.1,0,0.3,0,0.4
		c0,0.2,0,0.4,0,0.6c0,0.1,0,0.3,0,0.4c0,0.2,0,0.4,0,0.6c0,0.1,0,0.3,0,0.4c0,0.2-0.1,0.5-0.1,0.7c0,0.1,0,0.2,0,0.3
		c0,0.3-0.1,0.5-0.1,0.8c0,0.1,0,0.1,0,0.2c-0.2,0.7-0.3,1.4-0.6,2.1c0,0.1-0.1,0.2-0.1,0.3c-0.1,0.2-0.2,0.5-0.3,0.7
		c-0.1,0.1-0.1,0.2-0.2,0.4c-0.1,0.2-0.2,0.4-0.3,0.6c-0.1,0.1-0.1,0.3-0.2,0.4c-0.1,0.2-0.2,0.4-0.3,0.6c-0.1,0.1-0.2,0.3-0.3,0.4
		c-0.1,0.2-0.2,0.4-0.4,0.5c-0.1,0.1-0.2,0.3-0.3,0.4c-0.1,0.2-0.3,0.3-0.4,0.5c-0.1,0.1-0.2,0.3-0.4,0.4c-0.2,0.2-0.3,0.3-0.5,0.5
		c-0.1,0.1-0.3,0.2-0.4,0.4c-0.1,0.1-0.1,0.1-0.2,0.2c-3,3.4-7.8,5.9-15.4,5.9c-6.6,0-13-2.5-18.1-6.4c-0.2-0.1-0.3-0.2-0.5-0.4
		c-2.2,1.2-10.4,2.8-19.1,1C11,59.1,22.3,67,35.4,67c17.7,0,32-14.3,32-32C67.4,22.4,60.1,11.5,49.5,6.3z"/>
	<path fill="#FFFFFF" d="M9.6,31.5c-1.4-1.6-3.2-3.2-5.1-4.5c-0.7,2.6-1,5.3-1,8.1c0,0.6,0,1.2,0.1,1.8c4.8,3.2,10.7,5.6,16.9,5.8
		C15.3,38,11.1,33.2,9.6,31.5z"/>
</g>
</svg>
